HIERARCHY
ROOT Pelvis
{
	OFFSET 0.000000 0.000000 0.000000
	CHANNELS 6 Xposition Yposition Zposition Zrotation Yrotation Xrotation 
	JOINT Left_hip
	{
		OFFSET 0.068973 -0.091024 -0.007589
		CHANNELS 3 Zrotation Yrotation Xrotation
		JOINT Left_knee
		{
			OFFSET 0.036482 -0.391037 -0.003979
			CHANNELS 3 Zrotation Yrotation Xrotation
			JOINT Left_ankle
			{
				OFFSET -0.012239 -0.415469 -0.043440
				CHANNELS 3 Zrotation Yrotation Xrotation
				JOINT Left_foot
				{
					OFFSET 0.023806 -0.058558 0.118702
					CHANNELS 3 Zrotation Yrotation Xrotation
					End Site
					{
						OFFSET 0.000000 0.000000 0.000000
					}
				}
			}
		}
	}
	JOINT Right_hip
	{
		OFFSET -0.066552 -0.090468 -0.003847
		CHANNELS 3 Zrotation Yrotation Xrotation
		JOINT Right_knee
		{
			OFFSET -0.042435 -0.398340 -0.006400
			CHANNELS 3 Zrotation Yrotation Xrotation
			JOINT Right_ankle
			{
				OFFSET 0.014931 -0.415421 -0.041327
				CHANNELS 3 Zrotation Yrotation Xrotation
				JOINT Right_foot
				{
					OFFSET -0.021472 -0.049410 0.121889
					CHANNELS 3 Zrotation Yrotation Xrotation
					End Site
					{
						OFFSET 0.000000 0.000000 0.000000
					}
				}
			}
		}
	}
	JOINT Spine1
	{
		OFFSET -0.002904 0.105700 -0.022855
		CHANNELS 3 Zrotation Yrotation Xrotation
		JOINT Spine2
		{
			OFFSET 0.004179 0.132554 -0.002501
			CHANNELS 3 Zrotation Yrotation Xrotation
			JOINT Spine3
			{
				OFFSET 0.001987 0.049603 0.025988
				CHANNELS 3 Zrotation Yrotation Xrotation
				JOINT Neck
				{
					OFFSET -0.003935 0.211336 -0.045638
					CHANNELS 3 Zrotation Yrotation Xrotation
					JOINT Head
					{
						OFFSET 0.003906 0.065991 0.051018
						CHANNELS 3 Zrotation Yrotation Xrotation
						End Site
						{
							OFFSET 0.000000 0.000000 0.000000
						}
					}
				}
				JOINT Left_collar
				{
					OFFSET 0.072882 0.117751 -0.036270
					CHANNELS 3 Zrotation Yrotation Xrotation
					JOINT Left_shoulder
					{
						OFFSET 0.082118 0.032630 -0.005771
						CHANNELS 3 Zrotation Yrotation Xrotation
						JOINT Left_elbow
						{
							OFFSET 0.263305 -0.015144 -0.028095
							CHANNELS 3 Zrotation Yrotation Xrotation
							JOINT Left_wrist
							{
								OFFSET 0.250741 0.010115 -0.000759
								CHANNELS 3 Zrotation Yrotation Xrotation
								JOINT Left_palm
								{
									OFFSET 0.080683 -0.009989 -0.013613
									CHANNELS 3 Zrotation Yrotation Xrotation
									End Site
									{
										OFFSET 0.000000 0.000000 0.000000
									}
								}
							}
						}
					}
				}
				JOINT Right_collar
				{
					OFFSET -0.074811 0.116132 -0.040385
					CHANNELS 3 Zrotation Yrotation Xrotation
					JOINT Right_shoulder
					{
						OFFSET -0.085089 0.032943 -0.007484
						CHANNELS 3 Zrotation Yrotation Xrotation
						JOINT Right_elbow
						{
							OFFSET -0.254763 -0.014219 -0.020321
							CHANNELS 3 Zrotation Yrotation Xrotation
							JOINT Right_wrist
							{
								OFFSET -0.256597 0.009233 -0.005063
								CHANNELS 3 Zrotation Yrotation Xrotation
								JOINT Right_palm
								{
									OFFSET -0.080528 -0.007219 -0.010379
									CHANNELS 3 Zrotation Yrotation Xrotation
									End Site
									{
										OFFSET 0.000000 0.000000 0.000000
									}
								}
							}
						}
					}
				}
			}
		}
	}
}
MOTION
Frames: 5
Frame Time: 0.100000
0.000000 0.000000 0.000000 170.723617 34.078221 -21.063572 9.879514 7.179174 17.090799 -2.110959 3.225488 -8.928670 -4.762318 9.061764 1.780986 3.532524 6.859373 -4.022164 -4.919033 -7.520005 13.532132 4.243547 -8.375554 -4.352573 2.796895 -6.386214 0.465909 0.792203 -5.793672 5.082784 1.646848 0.708332 -2.852051 1.206410 -2.384536 7.839175 0.808740 -1.536028 -0.396272 3.655394 -2.804177 10.200459 2.656948 -9.216814 -3.600677 -24.857946 -2.554263 8.741555 -52.683278 -3.449671 11.608407 3.811444 -23.558775 14.107165 -11.814049 -11.413174 7.353140 -8.923045 -1.490830 -20.839858 22.479625 8.592199 7.865544 54.832053 0.915888 13.847833 -6.948542 21.412125 6.279211 5.420155 7.059505 -1.993529 7.700956 2.635548 -6.607127 
-0.001662 0.000333 -0.001594 170.729988 34.261126 -21.216301 9.770450 7.128254 17.242900 -2.173108 3.152308 -8.936637 -4.740168 9.031868 1.740210 3.496124 6.819966 -3.984934 -5.081877 -7.485228 13.805555 4.218446 -8.479404 -4.478762 2.820396 -6.412139 0.540788 0.748792 -5.825365 5.028456 1.669350 0.642977 -2.669756 1.100686 -2.405321 7.858020 0.749163 -1.576557 -0.309714 3.551245 -2.802265 10.192563 2.634785 -9.182845 -3.538548 -24.949533 -2.611118 8.836689 -52.647151 -3.540894 11.475888 3.815547 -23.651468 14.173821 -11.850028 -11.492598 7.264852 -8.839535 -1.387184 -20.863204 22.454010 8.582597 7.943862 54.858231 0.852756 13.778799 -6.993699 21.329977 6.278881 5.458396 7.076283 -2.029129 7.573784 2.589895 -6.581122 
-0.005436 0.000884 -0.005262 170.708072 34.898959 -21.306025 9.331878 7.008589 16.825754 -2.308018 3.038574 -8.350988 -4.568980 8.875820 1.408255 3.423807 6.737675 -3.887936 -5.559079 -7.584329 14.013468 4.157133 -8.656164 -4.687448 2.851201 -6.473357 0.868029 0.889714 -5.891467 4.902728 1.665276 0.691900 -2.398486 1.037436 -2.535777 7.892095 0.674638 -1.701137 -0.320886 3.575669 -3.318854 10.182459 2.823639 -9.392890 -3.218680 -25.170762 -2.568161 8.877015 -52.668358 -3.950907 11.485223 3.731965 -23.945828 14.310880 -11.782237 -11.794184 7.136128 -8.519435 -1.137627 -20.538169 22.498496 8.472821 7.969880 54.579976 0.909846 13.665764 -7.057461 20.859428 6.111590 5.429278 7.100359 -1.894956 7.180435 2.526178 -6.414384 
-0.011301 0.001537 -0.011026 170.420437 35.684034 -21.555770 8.920163 6.780710 16.570775 -2.489597 2.871906 -8.125843 -4.384375 8.599953 1.085736 3.304374 6.854487 -3.654948 -5.985646 -7.657850 14.042398 4.054709 -9.004189 -4.541322 2.795305 -6.588595 1.249091 1.169917 -6.044910 4.811457 1.411821 0.791443 -2.335877 1.104010 -2.589647 8.335452 0.616897 -1.818783 -0.330917 4.066519 -5.612743 10.569421 3.725445 -11.602267 -2.811893 -25.214896 -2.713748 9.213438 -52.597976 -4.684038 11.558112 3.598937 -24.337050 14.424950 -11.724084 -12.233399 7.216650 -7.973424 -0.650762 -20.346743 22.538574 8.843816 8.105319 54.510546 1.076899 13.696020 -7.193388 20.228919 6.123021 4.825586 7.092389 -1.772753 6.425948 2.254026 -6.142166 
-0.017719 0.002911 -0.019534 170.010924 35.864757 -21.619737 8.515326 6.537090 16.154310 -2.735268 2.819810 -8.120958 -3.889996 8.528677 0.576222 3.085088 6.996145 -3.081242 -6.198418 -7.503133 12.863728 3.770675 -9.404068 -3.163527 2.094566 -6.508886 1.474038 2.383661 -6.512800 5.065187 0.861741 0.896304 -2.196018 1.383242 -2.364232 9.163112 0.400044 -1.756072 -0.659908 4.981537 -11.321496 11.809203 5.209224 -16.790548 -1.216613 -25.277892 -2.150346 9.325460 -52.105185 -5.674096 12.036092 3.999908 -24.706446 13.345037 -11.452915 -12.809587 7.284218 -7.208605 -0.021816 -19.702031 22.904366 9.389416 7.838960 54.175528 1.705577 14.037422 -7.337979 19.372219 5.564002 4.134228 7.271140 -2.144311 5.140320 1.823710 -5.384521 
